# Blender v3.6.12 OBJ File: 'wood_rail.blend'
# www.blender.org
mtllib railwood.mtl
o ModelRail_1435mm_NB_Wood_SB_alt_L
v -1.271855 0.000000 0.127723
v 1.271855 0.000000 0.127723
v 1.271855 0.128563 0.127723
v -1.271855 0.128563 0.127723
v 1.271855 -0.000000 -0.127363
v 1.271855 0.128563 -0.127363
v -1.271855 -0.000000 -0.127362
v -1.271855 0.128563 -0.127362
v 0.624463 0.127543 0.063993
v 0.902988 0.127543 0.063993
v 0.902988 0.142848 0.063993
v 0.624463 0.142848 0.063993
v 0.624463 0.142848 -0.063633
v 0.624463 0.127543 -0.063633
v 0.902988 0.142848 -0.063633
v 0.902988 0.127543 -0.063633
v 0.624463 0.142848 0.063993
v 0.902988 0.142848 0.063993
v 0.902988 0.142848 -0.063633
v 0.624463 0.142848 -0.063633
v -0.795866 0.255085 0.319030
v -0.732095 0.255085 0.319030
v -0.732095 0.255085 -0.318684
v -0.795866 0.255085 -0.318683
v -0.827752 0.127543 -0.318683
v -0.700209 0.127543 -0.318684
v -0.700209 0.127543 0.319030
v -0.827752 0.127543 0.319030
v -0.732095 0.234678 -0.318684
v -0.732095 0.234679 0.319030
v -0.795866 0.234679 0.319030
v -0.795866 0.234678 -0.318683
v -0.748038 0.214272 -0.318684
v -0.748038 0.214272 0.319030
v -0.779923 0.214272 0.319030
v -0.779923 0.214272 -0.318683
v -0.748038 0.147949 -0.318683
v -0.748038 0.147950 0.319030
v -0.779923 0.147950 0.319030
v -0.779923 0.147949 -0.318683
v -0.700209 0.137746 0.319030
v -0.700209 0.137746 -0.318684
v -0.827752 0.137746 -0.318683
v -0.827752 0.137746 0.319030
v 0.732095 0.255085 0.319030
v 0.795866 0.255085 0.319030
v 0.795866 0.255085 -0.318684
v 0.732095 0.255085 -0.318684
v 0.700209 0.127543 -0.318684
v 0.827752 0.127543 -0.318684
v 0.827752 0.127543 0.319030
v 0.700209 0.127543 0.319030
v 0.795866 0.234678 -0.318684
v 0.795866 0.234679 0.319030
v 0.732095 0.234679 0.319030
v 0.732095 0.234678 -0.318684
v 0.779923 0.214272 -0.318684
v 0.779923 0.214272 0.319030
v 0.748038 0.214272 0.319030
v 0.748038 0.214272 -0.318684
v 0.779923 0.147949 -0.318684
v 0.779923 0.147950 0.319030
v 0.748038 0.147950 0.319030
v 0.748038 0.147949 -0.318684
v 0.827752 0.137746 0.319030
v 0.827752 0.137746 -0.318684
v 0.700209 0.137746 -0.318684
v 0.700209 0.137746 0.319030
v -0.903637 0.127543 0.063993
v -0.625112 0.127543 0.063993
v -0.625112 0.142848 0.063993
v -0.903637 0.142848 0.063993
v -0.903637 0.142848 -0.063633
v -0.903637 0.127543 -0.063633
v -0.625112 0.142848 -0.063633
v -0.625112 0.127543 -0.063633
v -0.903637 0.142848 0.063993
v -0.625112 0.142848 0.063993
v -0.625112 0.142848 -0.063633
v -0.903637 0.142848 -0.063633
vt 0.000000 0.910660
vt 0.641750 0.910660
vt 0.641750 0.982080
vt 0.000000 0.982080
vt 0.012380 0.644230
vt 0.142670 0.644230
vt 0.142670 0.723560
vt 0.012380 0.723560
vt 0.000000 0.908250
vt 0.641750 0.908250
vt 0.641750 0.981570
vt 0.000000 0.981570
vt 0.012880 0.644230
vt 0.143180 0.644230
vt 0.143180 0.723560
vt 0.012880 0.723560
vt 0.000000 0.723560
vt 0.643700 0.723560
vt 0.643700 0.906250
vt 0.000000 0.906250
vt 0.000000 0.722360
vt 0.643700 0.722360
vt 0.643700 0.905050
vt 0.000000 0.905050
vt 0.441300 0.483360
vt 0.441300 0.483360
vt 0.441300 0.483360
vt 0.441300 0.483360
vt 0.441300 0.483360
vt 0.441300 0.483360
vt 0.441300 0.483360
vt 0.441300 0.483360
vt 0.523950 0.200570
vt 0.057240 0.200570
vt 0.057240 0.378080
vt 0.523950 0.378080
vt 0.644830 0.582040
vt 0.583730 0.582040
vt 0.583730 0.066360
vt 0.644830 0.066360
vt 0.528400 0.388710
vt 0.528400 0.533280
vt 0.068330 0.533280
vt 0.068330 0.388710
vt 0.538670 0.066440
vt 0.538670 0.582040
vt 0.528400 0.469180
vt 0.528400 0.510320
vt 0.068330 0.510320
vt 0.068330 0.469180
vt 0.528400 0.588630
vt 0.528400 0.616260
vt 0.068330 0.616260
vt 0.068330 0.588630
vt 0.528400 0.588630
vt 0.528400 0.616260
vt 0.068330 0.616260
vt 0.068330 0.588630
vt 0.528400 0.494740
vt 0.068330 0.494740
vt 0.528400 0.494740
vt 0.068330 0.494740
vt 0.068330 0.406760
vt 0.068330 0.388720
vt 0.528400 0.388720
vt 0.528400 0.406760
vt 0.528400 0.468420
vt 0.068330 0.468420
vt 0.068330 0.406760
vt 0.068330 0.388720
vt 0.528400 0.388720
vt 0.528400 0.406760
vt 0.528400 0.468420
vt 0.068330 0.468420
vt 0.583730 0.582040
vt 0.644830 0.582040
vt 0.644830 0.066360
vt 0.583730 0.066360
vt 0.528400 0.388710
vt 0.528400 0.533280
vt 0.068330 0.533280
vt 0.068330 0.388710
vt 0.528400 0.469180
vt 0.528400 0.510270
vt 0.068330 0.510270
vt 0.068330 0.469180
vt 0.538670 0.066440
vt 0.583720 0.066440
vt 0.583720 0.582040
vt 0.538670 0.582040
vt 0.528400 0.588630
vt 0.528400 0.616260
vt 0.068330 0.616260
vt 0.068330 0.588630
vt 0.528400 0.588630
vt 0.528400 0.616260
vt 0.068330 0.616260
vt 0.068330 0.588630
vt 0.528400 0.494740
vt 0.068330 0.494740
vt 0.528400 0.494740
vt 0.068330 0.494740
vt 0.068330 0.406760
vt 0.068330 0.388720
vt 0.528400 0.388720
vt 0.528400 0.406760
vt 0.528400 0.468420
vt 0.068330 0.468420
vt 0.068330 0.406760
vt 0.068330 0.388720
vt 0.528400 0.388720
vt 0.528400 0.406760
vt 0.528400 0.468420
vt 0.068330 0.468420
vt 0.441300 0.483360
vt 0.441300 0.483360
vt 0.441300 0.483360
vt 0.441300 0.483360
vt 0.441300 0.483360
vt 0.441300 0.483360
vt 0.441300 0.483360
vt 0.441300 0.483360
vt 0.523950 0.200570
vt 0.057240 0.200570
vt 0.057240 0.378080
vt 0.523950 0.378080
vn 0.0000 0.0000 1.0000
vn 1.0000 0.0000 0.0000
vn -0.0000 -0.0000 -1.0000
vn -1.0000 0.0000 0.0000
vn -0.0000 1.0000 -0.0000
vn -0.0000 -1.0000 0.0000
vn 0.7880 -0.6156 0.0000
vn -0.7880 -0.6156 0.0000
vn 0.2086 0.9780 -0.0000
vn -0.2086 0.9780 -0.0000
usemtl mat1
s off
f 1/1/1 2/2/1 3/3/1 4/4/1
f 2/5/2 5/6/2 6/7/2 3/8/2
f 5/9/3 7/10/3 8/11/3 6/12/3
f 7/13/4 1/14/4 4/15/4 8/16/4
f 4/17/5 3/18/5 6/19/5 8/20/5
f 7/21/6 5/22/6 2/23/6 1/24/6
f 9/25/1 10/26/1 11/27/1 12/28/1
f 12/28/4 13/29/4 14/30/4 9/25/4
f 13/29/3 15/31/3 16/32/3 14/30/3
f 10/26/2 16/32/2 15/31/2 11/27/2
f 17/33/5 18/34/5 19/35/5 20/36/5
f 21/37/5 22/38/5 23/39/5 24/40/5
f 25/41/6 26/42/6 27/43/6 28/44/6
f 29/45/2 23/39/2 22/38/2 30/46/2
f 31/47/4 21/48/4 24/49/4 32/50/4
f 33/51/7 29/52/7 30/53/7 34/54/7
f 35/55/8 31/56/8 32/57/8 36/58/8
f 37/59/2 33/51/2 34/54/2 38/60/2
f 39/61/4 35/55/4 36/58/4 40/62/4
f 41/63/2 27/64/2 26/65/2 42/66/2
f 42/66/9 37/67/9 38/68/9 41/63/9
f 43/69/4 25/70/4 28/71/4 44/72/4
f 44/72/10 39/73/10 40/74/10 43/69/10
f 45/75/5 46/76/5 47/77/5 48/78/5
f 49/79/6 50/80/6 51/81/6 52/82/6
f 53/83/2 47/84/2 46/85/2 54/86/2
f 55/87/4 45/88/4 48/89/4 56/90/4
f 57/91/7 53/92/7 54/93/7 58/94/7
f 59/95/8 55/96/8 56/97/8 60/98/8
f 61/99/2 57/91/2 58/94/2 62/100/2
f 63/101/4 59/95/4 60/98/4 64/102/4
f 65/103/2 51/104/2 50/105/2 66/106/2
f 66/106/9 61/107/9 62/108/9 65/103/9
f 67/109/4 49/110/4 52/111/4 68/112/4
f 68/112/10 63/113/10 64/114/10 67/109/10
f 69/115/1 70/116/1 71/117/1 72/118/1
f 72/118/4 73/119/4 74/120/4 69/115/4
f 73/119/3 75/121/3 76/122/3 74/120/3
f 70/116/2 76/122/2 75/121/2 71/117/2
f 77/123/5 78/124/5 79/125/5 80/126/5
