# Blender v3.6.9 OBJ File: ''
# www.blender.org
mtllib tram_track.mtl
o Cube.002
v -1.356160 0.049609 0.600000
v -1.356160 0.249608 0.600000
v -1.356160 0.249608 -0.600000
v -1.356160 0.049608 -0.600000
v -0.816937 0.249608 -0.600000
v -0.816937 0.049608 -0.600000
v -0.816937 0.249608 0.600000
v -0.816937 0.049609 0.600000
vt 0.375000 0.000000
vt 0.625000 0.000000
vt 0.625000 0.250000
vt 0.375000 0.250000
vt 0.625000 0.500000
vt 0.375000 0.500000
vt 0.625000 0.750000
vt 0.375000 0.750000
vt 0.625000 1.000000
vt 0.375000 1.000000
vt 0.125000 0.500000
vt 0.125000 0.750000
vt 0.875000 0.500000
vt 0.875000 0.750000
vn -1.0000 0.0000 0.0000
vn 0.0000 0.0000 -1.0000
vn 1.0000 0.0000 0.0000
vn 0.0000 0.0000 1.0000
vn 0.0000 -1.0000 0.0000
vn 0.0000 1.0000 -0.0000
usemtl Material.002
s 1
f 1/1/1 2/2/1 3/3/1 4/4/1
f 4/4/2 3/3/2 5/5/2 6/6/2
f 6/6/3 5/5/3 7/7/3 8/8/3
f 8/8/4 7/7/4 2/9/4 1/10/4
f 4/11/5 6/6/5 8/8/5 1/12/5
f 5/5/6 3/13/6 2/14/6 7/7/6
o rail_c
v 0.989182 0.137290 0.355011
v 1.312507 0.059494 0.380011
v 1.312507 0.059494 0.160011
v -0.989182 0.137288 -0.361346
v -0.291344 0.059493 -0.361346
v -1.312507 0.059493 -0.386346
v -0.291993 -0.074497 -0.401346
v -1.312507 -0.074497 -0.429346
v 0.821035 0.112773 -0.266597
v 0.956694 0.126981 -0.266597
v 0.942829 0.247109 -0.266597
v 0.807169 0.232900 -0.266597
v 0.821035 0.112773 -0.286124
v 0.807169 0.232900 -0.286124
v 0.942829 0.247109 -0.286124
v 0.956694 0.126981 -0.286124
v 0.755345 0.112447 -0.266597
v 0.739635 0.232368 -0.266597
v 0.604207 0.216268 -0.266598
v 0.619919 0.096348 -0.266598
v 0.755345 0.112447 -0.286123
v 0.619919 0.096348 -0.286124
v 0.604207 0.216268 -0.286124
v 0.739635 0.232368 -0.286123
v -0.821035 0.112773 -0.266598
v -0.807169 0.232900 -0.266598
v -0.942829 0.247109 -0.266598
v -0.956694 0.126981 -0.266598
v -0.821035 0.112773 -0.286124
v -0.956694 0.126981 -0.286124
v -0.942829 0.247109 -0.286124
v -0.807169 0.232900 -0.286124
v -0.755345 0.112447 -0.266598
v -0.619919 0.096348 -0.266598
v -0.604207 0.216268 -0.266598
v -0.739635 0.232368 -0.266598
v -0.755345 0.112447 -0.286124
v -0.739635 0.232368 -0.286124
v -0.604207 0.216268 -0.286124
v -0.619919 0.096348 -0.286124
v 0.989182 0.137290 0.355011
v 0.291344 0.059494 0.355010
v 1.312507 0.059494 0.380011
v 1.312507 -0.074496 0.423011
v 0.291993 -0.074496 0.395010
v -0.942829 0.247110 0.279759
v -0.956694 0.126982 0.279759
v -0.821035 0.112774 0.279759
v -0.807169 0.232900 0.279759
v -0.821035 0.112774 0.260233
v -0.956694 0.126982 0.260232
v -0.942829 0.247110 0.260232
v -0.807169 0.232900 0.260233
v -0.755345 0.112448 0.279759
v -0.619919 0.096349 0.279759
v -0.604207 0.216269 0.279759
v -0.739635 0.232369 0.279759
v -0.755345 0.112448 0.260233
v -0.739635 0.232369 0.260233
v -0.604207 0.216269 0.260232
v -0.619919 0.096349 0.260232
v 1.312507 0.059494 0.160011
v 0.989182 0.137289 0.185011
v 0.989182 0.137290 0.355011
v 1.312507 0.059494 0.380011
v 1.312507 -0.074496 0.423011
v 1.312507 -0.074496 0.117011
v 1.312507 0.059494 0.160011
v 0.989182 0.137289 0.185011
v 1.312507 0.059494 0.160011
v 0.291344 0.059494 0.185010
v 0.291993 -0.074496 0.145010
v 1.312507 -0.074496 0.117011
v 0.989182 0.137290 0.355011
v 0.989182 0.137289 0.185011
v 0.291344 0.059494 0.185010
v 0.291344 0.059494 0.185010
v 0.291344 0.059494 0.355010
v 0.989182 0.137290 0.355011
v -0.989182 0.137290 0.355010
v -1.312507 0.059494 0.380010
v -0.291344 0.059494 0.355010
v -1.312507 -0.074496 0.423010
v -0.291993 -0.074496 0.395010
v -0.291993 -0.074496 0.395010
v 0.291993 -0.074496 0.395010
v 0.291344 0.059494 0.355010
v 0.291344 0.059494 0.355010
v -0.291344 0.059494 0.355010
v -0.291993 -0.074496 0.395010
v -0.989182 0.137290 0.355010
v -0.989182 0.137289 0.185010
v -1.312507 0.059494 0.160010
v -1.312507 0.059494 0.160010
v -1.312507 0.059494 0.380010
v -0.989182 0.137290 0.355010
v -1.312507 0.059494 0.380010
v -1.312507 0.059494 0.160010
v -1.312507 -0.074496 0.117010
v -1.312507 -0.074496 0.423010
v -0.989182 0.137289 0.185010
v -0.291344 0.059494 0.185010
v -1.312507 0.059494 0.160010
v -0.291993 -0.074496 0.145010
v -1.312507 -0.074496 0.117010
v -0.989182 0.137290 0.355010
v -0.291344 0.059494 0.355010
v -0.291344 0.059494 0.185010
v -0.291344 0.059494 0.185010
v -0.989182 0.137289 0.185010
v -0.989182 0.137290 0.355010
v 0.291344 0.059494 0.355010
v 0.291344 0.059494 0.185010
v -0.291344 0.059494 0.185010
v -0.291344 0.059494 0.185010
v -0.291344 0.059494 0.355010
v 0.291344 0.059494 0.355010
v 0.291344 0.059494 0.185010
v 0.291993 -0.074496 0.145010
v -0.291993 -0.074496 0.145010
v -0.291993 -0.074496 0.145010
v -0.291344 0.059494 0.185010
v 0.291344 0.059494 0.185010
v 0.821035 0.112774 0.279759
v 0.956694 0.126982 0.279759
v 0.942828 0.247110 0.279759
v 0.807169 0.232900 0.279759
v 0.821035 0.112774 0.260233
v 0.807169 0.232900 0.260233
v 0.942828 0.247110 0.260233
v 0.956694 0.126982 0.260233
v 0.755345 0.112448 0.279759
v 0.739635 0.232369 0.279759
v 0.604207 0.216269 0.279759
v 0.619919 0.096349 0.279759
v 0.755345 0.112448 0.260233
v 0.619919 0.096349 0.260233
v 0.604207 0.216269 0.260233
v 0.739635 0.232369 0.260233
v 0.989182 0.137288 -0.191346
v 0.291344 0.059493 -0.191346
v 1.312507 0.059493 -0.166346
v 1.312507 -0.074497 -0.123346
v 0.291993 -0.074497 -0.151346
v 0.989182 0.137288 -0.191346
v 1.312507 0.059493 -0.166346
v 1.312507 0.059493 -0.386346
v 1.312507 0.059493 -0.386346
v 0.989182 0.137288 -0.361346
v 0.989182 0.137288 -0.191346
v 1.312507 0.059493 -0.166346
v 1.312507 -0.074497 -0.123346
v 1.312507 -0.074497 -0.429346
v 1.312507 -0.074497 -0.429346
v 1.312507 0.059493 -0.386346
v 1.312507 0.059493 -0.166346
v 0.989182 0.137288 -0.361346
v 1.312507 0.059493 -0.386346
v 0.291344 0.059493 -0.361346
v 0.291993 -0.074497 -0.401346
v 1.312507 -0.074497 -0.429346
v 0.989182 0.137288 -0.191346
v 0.989182 0.137288 -0.361346
v 0.291344 0.059493 -0.361346
v 0.291344 0.059493 -0.361346
v 0.291344 0.059493 -0.191346
v 0.989182 0.137288 -0.191346
v -0.989182 0.137288 -0.191346
v -1.312507 0.059493 -0.166346
v -0.291344 0.059493 -0.191346
v -1.312507 -0.074497 -0.123346
v -0.291993 -0.074497 -0.151346
v -0.291993 -0.074497 -0.151346
v 0.291993 -0.074497 -0.151346
v 0.291344 0.059493 -0.191346
v 0.291344 0.059493 -0.191346
v -0.291344 0.059493 -0.191346
v -0.291993 -0.074497 -0.151346
v -0.989182 0.137288 -0.191346
v -0.989182 0.137288 -0.361346
v -1.312507 0.059493 -0.386346
v -1.312507 0.059493 -0.386346
v -1.312507 0.059493 -0.166346
v -0.989182 0.137288 -0.191346
v -1.312507 0.059493 -0.166346
v -1.312507 0.059493 -0.386346
v -1.312507 -0.074497 -0.429346
v -1.312507 -0.074497 -0.123346
v -0.989182 0.137288 -0.191346
v -0.291344 0.059493 -0.191346
v -0.291344 0.059493 -0.361346
v -0.291344 0.059493 -0.361346
v -0.989182 0.137288 -0.361346
v -0.989182 0.137288 -0.191346
v 0.291344 0.059493 -0.191346
v 0.291344 0.059493 -0.361346
v -0.291344 0.059493 -0.361346
v -0.291344 0.059493 -0.361346
v -0.291344 0.059493 -0.191346
v 0.291344 0.059493 -0.191346
v 0.291344 0.059493 -0.361346
v 0.291993 -0.074497 -0.401346
v -0.291993 -0.074497 -0.401346
v -0.291993 -0.074497 -0.401346
v -0.291344 0.059493 -0.361346
v 0.291344 0.059493 -0.361346
v -0.736087 0.247884 -0.603553
v -0.740513 0.273814 -0.603553
v -0.740512 0.273816 0.599725
v -0.736087 0.247885 0.599725
v -0.763251 0.236288 -0.603553
v -0.763250 0.236289 0.599725
v -0.757391 0.140360 -0.603553
v -0.757391 0.140362 0.599725
v -0.706361 0.116450 -0.603553
v -0.706360 0.116453 0.599725
v -0.808848 0.251348 0.599725
v -0.801732 0.276730 0.599725
v -0.801732 0.276728 -0.603553
v -0.808849 0.251347 -0.603553
v -0.783033 0.237231 0.599725
v -0.783034 0.237229 -0.603553
v -0.798901 0.142338 0.599725
v -0.798901 0.142336 -0.603553
v -0.852178 0.123393 0.599725
v -0.852179 0.123390 -0.603553
v 0.808849 0.251346 -0.603553
v 0.801732 0.276727 -0.603553
v 0.801732 0.276730 0.599725
v 0.808848 0.251348 0.599725
v 0.736087 0.247885 0.599725
v 0.740512 0.273816 0.599725
v 0.740513 0.273814 -0.603553
v 0.736088 0.247884 -0.603553
v 0.763250 0.236289 0.599725
v 0.763251 0.236288 -0.603553
v 0.757391 0.140362 0.599725
v 0.757391 0.140359 -0.603553
v 0.706360 0.116452 0.599725
v 0.706361 0.116450 -0.603553
v 0.783034 0.237228 -0.603553
v 0.783033 0.237231 0.599725
v 0.798901 0.142335 -0.603553
v 0.798901 0.142338 0.599725
v 0.852179 0.123390 -0.603553
v 0.852178 0.123392 0.599725
v -0.801732 0.276730 0.599725
v -0.740512 0.273816 0.599725
v -0.740513 0.273814 -0.603553
v -0.801732 0.276728 -0.603553
v 0.801732 0.276730 0.599725
v 0.801732 0.276727 -0.603553
v 0.740513 0.273814 -0.603553
v 0.740512 0.273816 0.599725
vt 0.950754 0.836422
vt 0.988938 0.813109
vt 0.988938 0.887206
vt 0.647548 0.963931
vt 0.755681 0.963205
vt 0.612000 0.984182
vt 0.755582 0.990957
vt 0.600123 1.000089
vt 0.502958 0.851849
vt 0.597059 0.851849
vt 0.597059 0.997668
vt 0.502958 0.997668
vt 0.502958 0.851849
vt 0.502958 0.997668
vt 0.597059 0.997668
vt 0.597059 0.851849
vt 0.502958 0.851849
vt 0.502958 0.997668
vt 0.597059 0.997668
vt 0.597059 0.851849
vt 0.502958 0.851849
vt 0.597059 0.851849
vt 0.597059 0.997668
vt 0.502958 0.997668
vt 0.502958 0.851849
vt 0.502958 0.997668
vt 0.597059 0.997668
vt 0.597059 0.851849
vt 0.502958 0.851849
vt 0.597059 0.851849
vt 0.597059 0.997668
vt 0.502958 0.997668
vt 0.502958 0.851849
vt 0.597059 0.851849
vt 0.597059 0.997668
vt 0.502958 0.997668
vt 0.502958 0.851849
vt 0.502958 0.997668
vt 0.597059 0.997668
vt 0.597059 0.851849
vt 0.950754 0.836422
vt 0.844507 0.836422
vt 0.988938 0.813109
vt 0.999981 0.800068
vt 0.844605 0.809234
vt 0.597059 0.997668
vt 0.597059 0.851849
vt 0.502958 0.851849
vt 0.502958 0.997668
vt 0.502958 0.851849
vt 0.597059 0.851849
vt 0.597059 0.997668
vt 0.502958 0.997668
vt 0.502958 0.851849
vt 0.597059 0.851849
vt 0.597059 0.997668
vt 0.502958 0.997668
vt 0.502958 0.851849
vt 0.502958 0.997668
vt 0.597059 0.997668
vt 0.597059 0.851849
vt 0.988938 0.887206
vt 0.950754 0.862551
vt 0.950754 0.836422
vt 0.988938 0.813109
vt 0.999981 0.800068
vt 0.999981 0.900247
vt 0.988938 0.887206
vt 0.950754 0.862551
vt 0.988938 0.887206
vt 0.844507 0.862551
vt 0.844605 0.891080
vt 0.999981 0.900247
vt 0.950754 0.836422
vt 0.950754 0.862551
vt 0.844507 0.862551
vt 0.844507 0.862551
vt 0.844507 0.836422
vt 0.950754 0.836422
vt 0.647717 0.835598
vt 0.612188 0.817094
vt 0.755791 0.836543
vt 0.600317 0.800068
vt 0.755692 0.809234
vt 0.755692 0.809234
vt 0.844605 0.809234
vt 0.844507 0.836422
vt 0.844507 0.836422
vt 0.755791 0.836543
vt 0.755692 0.809234
vt 0.647717 0.835598
vt 0.647717 0.862787
vt 0.612188 0.884280
vt 0.612188 0.884280
vt 0.612188 0.817094
vt 0.647717 0.835598
vt 0.612188 0.817094
vt 0.612188 0.884280
vt 0.600317 0.900247
vt 0.600317 0.800068
vt 0.647717 0.862787
vt 0.755791 0.862672
vt 0.612188 0.884280
vt 0.755692 0.891080
vt 0.600317 0.900247
vt 0.647717 0.835598
vt 0.755791 0.836543
vt 0.755791 0.862672
vt 0.755791 0.862672
vt 0.647717 0.862787
vt 0.647717 0.835598
vt 0.844507 0.836422
vt 0.844507 0.862551
vt 0.755791 0.862672
vt 0.755791 0.862672
vt 0.755791 0.836543
vt 0.844507 0.836422
vt 0.844507 0.862551
vt 0.844605 0.891080
vt 0.755692 0.891080
vt 0.755692 0.891080
vt 0.755791 0.862672
vt 0.844507 0.862551
vt 0.503314 0.852028
vt 0.597416 0.852028
vt 0.597416 0.997846
vt 0.503314 0.997846
vt 0.502958 0.851849
vt 0.502958 0.997668
vt 0.597059 0.997668
vt 0.597059 0.851849
vt 0.502958 0.851849
vt 0.502958 0.997668
vt 0.597059 0.997668
vt 0.597059 0.851849
vt 0.502958 0.851849
vt 0.597059 0.851849
vt 0.597059 0.997668
vt 0.502958 0.997668
vt 0.950749 0.937175
vt 0.844444 0.937175
vt 0.988953 0.913282
vt 1.000002 0.900291
vt 0.844543 0.909422
vt 0.950749 0.937175
vt 0.988953 0.913282
vt 0.988953 0.987098
vt 0.988953 0.987098
vt 0.950749 0.963205
vt 0.950749 0.937175
vt 0.988953 0.913282
vt 1.000002 0.900291
vt 1.000002 1.000089
vt 1.000002 1.000089
vt 0.988953 0.987098
vt 0.988953 0.913282
vt 0.950749 0.963205
vt 0.988953 0.987098
vt 0.844444 0.963205
vt 0.844543 0.990957
vt 1.000002 1.000089
vt 0.950749 0.937175
vt 0.950749 0.963205
vt 0.844444 0.963205
vt 0.844444 0.963205
vt 0.844444 0.937175
vt 0.950749 0.937175
vt 0.647548 0.936846
vt 0.612000 0.917253
vt 0.755681 0.937175
vt 0.600123 0.900291
vt 0.755582 0.909422
vt 0.755582 0.909422
vt 0.844543 0.909422
vt 0.844444 0.937175
vt 0.844444 0.937175
vt 0.755681 0.937175
vt 0.755582 0.909422
vt 0.647548 0.936846
vt 0.647548 0.963931
vt 0.612000 0.984182
vt 0.612000 0.984182
vt 0.612000 0.917253
vt 0.647548 0.936846
vt 0.612000 0.917253
vt 0.612000 0.984182
vt 0.600123 1.000089
vt 0.600123 0.900291
vt 0.647548 0.936846
vt 0.755681 0.937175
vt 0.755681 0.963205
vt 0.755681 0.963205
vt 0.647548 0.963931
vt 0.647548 0.936846
vt 0.844444 0.937175
vt 0.844444 0.963205
vt 0.755681 0.963205
vt 0.755681 0.963205
vt 0.755681 0.937175
vt 0.844444 0.937175
vt 0.844444 0.963205
vt 0.844543 0.990957
vt 0.755582 0.990957
vt 0.755582 0.990957
vt 0.755681 0.963205
vt 0.844444 0.963205
vt 0.581038 0.847774
vt 0.596454 0.847774
vt 0.596454 0.451091
vt 0.581038 0.451091
vt 0.566921 0.847774
vt 0.566920 0.451091
vt 0.523484 0.847774
vt 0.523484 0.451091
vt 0.503745 0.847774
vt 0.503755 0.451091
vt 0.581038 0.451091
vt 0.596454 0.451091
vt 0.596454 0.847774
vt 0.581038 0.847774
vt 0.566920 0.451091
vt 0.566921 0.847774
vt 0.523484 0.451091
vt 0.523484 0.847774
vt 0.503755 0.451091
vt 0.503745 0.847774
vt 0.581038 0.847774
vt 0.596454 0.847774
vt 0.596454 0.451091
vt 0.581038 0.451091
vt 0.581038 0.451091
vt 0.596454 0.451091
vt 0.596454 0.847774
vt 0.581038 0.847774
vt 0.566920 0.451091
vt 0.566921 0.847774
vt 0.523484 0.451091
vt 0.523484 0.847774
vt 0.503755 0.451091
vt 0.503745 0.847774
vt 0.566921 0.847774
vt 0.566920 0.451091
vt 0.523484 0.847774
vt 0.523484 0.451091
vt 0.503745 0.847774
vt 0.503755 0.451091
vt 0.990928 0.182902
vt 0.991528 0.795100
vt 0.003559 0.795530
vt 0.002958 0.183313
vt 0.990928 0.182902
vt 0.002958 0.183313
vt 0.003559 0.795530
vt 0.991528 0.795100
vn 0.2339 0.9723 -0.0000
vn 0.0239 0.2144 -0.9764
vn 0.0235 0.2859 -0.9580
vn 0.0261 0.3055 -0.9518
vn 0.0000 0.0000 1.0000
vn 0.0000 0.0000 -1.0000
vn -0.0239 0.2144 0.9764
vn -0.0233 0.3055 0.9519
vn -0.0263 0.2858 0.9579
vn 1.0000 0.0000 0.0000
vn -0.0239 0.2144 -0.9764
vn -0.0235 0.2859 -0.9580
vn -0.0261 0.3055 -0.9518
vn -0.1108 0.9938 -0.0000
vn 0.0239 0.2144 0.9764
vn 0.0233 0.3055 0.9519
vn 0.0263 0.2858 0.9579
vn 0.0000 0.2861 0.9582
vn -0.2339 0.9723 -0.0000
vn -1.0000 0.0000 0.0000
vn 0.1108 0.9938 -0.0000
vn 0.0000 1.0000 -0.0000
vn 0.0000 0.2861 -0.9582
vn 0.9857 0.1683 -0.0000
vn 0.9858 0.1682 -0.0000
vn 0.3926 -0.9197 0.0000
vn 0.9981 0.0610 -0.0000
vn 0.4243 0.9055 -0.0000
vn -0.9629 0.2699 -0.0000
vn -0.9629 0.2700 0.0000
vn -0.4798 -0.8774 0.0000
vn -0.9863 0.1649 0.0000
vn -0.3350 0.9422 -0.0000
vn -0.3351 0.9422 -0.0000
vn 0.9629 0.2700 -0.0000
vn -0.9858 0.1682 -0.0000
vn -0.9857 0.1682 -0.0000
vn -0.3926 -0.9197 0.0000
vn -0.9981 0.0610 -0.0000
vn -0.4243 0.9055 -0.0000
vn 0.4798 -0.8774 0.0000
vn 0.9863 0.1649 0.0000
vn 0.3350 0.9422 -0.0000
vn 0.3351 0.9422 -0.0000
vn 0.0475 0.9989 -0.0000
vn -0.0475 0.9989 -0.0000
usemtl rails_alpha.m.tbumptex
s 1
f 9/15/7 10/16/7 11/17/7
f 12/18/8 13/19/8 14/20/8
f 14/20/9 13/19/9 15/21/9
f 15/21/10 16/22/10 14/20/10
f 17/23/11 18/24/11 19/25/11
f 19/25/11 20/26/11 17/23/11
f 21/27/12 22/28/12 23/29/12
f 23/29/12 24/30/12 21/27/12
f 25/31/11 26/32/11 27/33/11
f 27/33/11 28/34/11 25/31/11
f 29/35/12 30/36/12 31/37/12
f 31/37/12 32/38/12 29/35/12
f 33/39/11 34/40/11 35/41/11
f 35/41/11 36/42/11 33/39/11
f 37/43/12 38/44/12 39/45/12
f 39/45/12 40/46/12 37/43/12
f 41/47/11 42/48/11 43/49/11
f 43/49/11 44/50/11 41/47/11
f 45/51/12 46/52/12 47/53/12
f 47/53/12 48/54/12 45/51/12
f 49/55/13 50/56/13 51/57/13
f 52/58/14 51/57/14 50/56/14
f 50/56/15 53/59/15 52/58/15
f 54/60/11 55/61/11 56/62/11
f 56/62/11 57/63/11 54/60/11
f 58/64/12 59/65/12 60/66/12
f 60/66/12 61/67/12 58/64/12
f 62/68/11 63/69/11 64/70/11
f 64/70/11 65/71/11 62/68/11
f 66/72/12 67/73/12 68/74/12
f 68/74/12 69/75/12 66/72/12
f 70/76/7 71/77/7 72/78/7
f 73/79/16 74/80/16 75/81/16
f 75/81/16 76/82/16 73/79/16
f 77/83/17 78/84/17 79/85/17
f 80/86/18 79/85/18 78/84/18
f 78/84/19 81/87/19 80/86/19
f 82/88/20 83/89/20 84/90/20
f 85/91/20 86/92/20 87/93/20
f 88/94/21 89/95/21 90/96/21
f 90/96/22 89/95/22 91/97/22
f 91/97/23 92/98/23 90/96/23
f 93/99/24 94/100/24 95/101/24
f 96/102/24 97/103/24 98/104/24
f 99/105/25 100/106/25 101/107/25
f 102/108/25 103/109/25 104/110/25
f 105/111/26 106/112/26 107/113/26
f 107/113/26 108/114/26 105/111/26
f 109/115/8 110/116/8 111/117/8
f 111/117/9 110/116/9 112/118/9
f 112/118/10 113/119/10 111/117/10
f 114/120/27 115/121/27 116/122/27
f 117/123/27 118/124/27 119/125/27
f 120/126/28 121/127/28 122/128/28
f 123/129/28 124/130/28 125/131/28
f 126/132/29 127/133/29 128/134/29
f 129/135/29 130/136/29 131/137/29
f 132/138/11 133/139/11 134/140/11
f 134/140/11 135/141/11 132/138/11
f 136/142/12 137/143/12 138/144/12
f 138/144/12 139/145/12 136/142/12
f 140/146/11 141/147/11 142/148/11
f 142/148/11 143/149/11 140/146/11
f 144/150/12 145/151/12 146/152/12
f 146/152/12 147/153/12 144/150/12
f 148/154/13 149/155/13 150/156/13
f 151/157/14 150/156/14 149/155/14
f 149/155/15 152/158/15 151/157/15
f 153/159/7 154/160/7 155/161/7
f 156/162/7 157/163/7 158/164/7
f 159/165/16 160/166/16 161/167/16
f 162/168/16 163/169/16 164/170/16
f 165/171/17 166/172/17 167/173/17
f 168/174/18 167/173/18 166/172/18
f 166/172/19 169/175/19 168/174/19
f 170/176/20 171/177/20 172/178/20
f 173/179/20 174/180/20 175/181/20
f 176/182/21 177/183/21 178/184/21
f 178/184/22 177/183/22 179/185/22
f 179/185/23 180/186/23 178/184/23
f 181/187/24 182/188/24 183/189/24
f 184/190/24 185/191/24 186/192/24
f 187/193/25 188/194/25 189/195/25
f 190/196/25 191/197/25 192/198/25
f 193/199/26 194/200/26 195/201/26
f 195/201/26 196/202/26 193/199/26
f 197/203/27 198/204/27 199/205/27
f 200/206/27 201/207/27 202/208/27
f 203/209/28 204/210/28 205/211/28
f 206/212/28 207/213/28 208/214/28
f 209/215/29 210/216/29 211/217/29
f 212/218/29 213/219/29 214/220/29
f 215/221/30 216/222/30 217/223/31
f 217/223/31 218/224/31 215/221/30
f 219/225/32 215/221/32 218/224/32
f 218/224/32 220/226/32 219/225/32
f 221/227/33 219/225/33 220/226/33
f 220/226/33 222/228/33 221/227/33
f 223/229/34 221/227/34 222/228/34
f 222/228/34 224/230/34 223/229/34
f 225/231/35 226/232/35 227/233/36
f 227/233/36 228/234/36 225/231/35
f 229/235/37 225/231/37 228/234/37
f 228/234/37 230/236/37 229/235/37
f 231/237/38 229/235/38 230/236/38
f 230/236/38 232/238/38 231/237/38
f 233/239/39 231/237/39 232/238/40
f 232/238/40 234/240/40 233/239/39
f 235/241/41 236/242/41 237/243/41
f 237/243/41 238/244/41 235/241/41
f 239/245/42 240/246/42 241/247/43
f 241/247/43 242/248/43 239/245/42
f 243/249/44 239/245/44 242/248/44
f 242/248/44 244/250/44 243/249/44
f 245/251/45 243/249/45 244/250/45
f 244/250/45 246/252/45 245/251/45
f 247/253/46 245/251/46 246/252/46
f 246/252/46 248/254/46 247/253/46
f 249/255/47 235/241/47 238/244/47
f 238/244/47 250/256/47 249/255/47
f 251/257/48 249/255/48 250/256/48
f 250/256/48 252/258/48 251/257/48
f 253/259/49 251/257/49 252/258/50
f 252/258/50 254/260/50 253/259/49
usemtl rails_head.m.tbumpenv
f 255/261/51 256/262/51 257/263/51
f 257/263/51 258/264/51 255/261/51
f 259/265/52 260/266/52 261/267/52
f 261/267/52 262/268/52 259/265/52
o Cube.001_Cube.005
v -0.723295 0.051981 0.600000
v -0.723295 0.251980 0.600000
v -0.723295 0.251980 -0.600000
v -0.723295 0.051980 -0.600000
v 0.725721 0.251980 -0.600000
v 0.725721 0.051980 -0.600000
v 0.725721 0.251980 0.600000
v 0.725721 0.051981 0.600000
vt 0.375000 0.000000
vt 0.625000 0.000000
vt 0.625000 0.250000
vt 0.375000 0.250000
vt 0.625000 0.500000
vt 0.375000 0.500000
vt 0.625000 0.750000
vt 0.375000 0.750000
vt 0.625000 1.000000
vt 0.375000 1.000000
vt 0.125000 0.500000
vt 0.125000 0.750000
vt 0.875000 0.500000
vt 0.875000 0.750000
vn -1.0000 0.0000 0.0000
vn 0.0000 0.0000 -1.0000
vn 1.0000 0.0000 0.0000
vn 0.0000 0.0000 1.0000
vn 0.0000 -1.0000 0.0000
vn 0.0000 1.0000 -0.0000
usemtl Material.003
s 1
f 263/269/53 264/270/53 265/271/53 266/272/53
f 266/272/54 265/271/54 267/273/54 268/274/54
f 268/274/55 267/273/55 269/275/55 270/276/55
f 270/276/56 269/275/56 264/277/56 263/278/56
f 266/279/57 268/274/57 270/276/57 263/280/57
f 267/273/58 265/281/58 264/282/58 269/275/58
o Cube.003_Cube.008
v 0.834947 0.049609 0.600000
v 0.834947 0.249608 0.600000
v 0.834947 0.249608 -0.600000
v 0.834947 0.049608 -0.600000
v 1.374171 0.249608 -0.600000
v 1.374171 0.049608 -0.600000
v 1.374171 0.249608 0.600000
v 1.374171 0.049609 0.600000
vt 0.375000 0.000000
vt 0.625000 0.000000
vt 0.625000 0.250000
vt 0.375000 0.250000
vt 0.625000 0.500000
vt 0.375000 0.500000
vt 0.625000 0.750000
vt 0.375000 0.750000
vt 0.625000 1.000000
vt 0.375000 1.000000
vt 0.125000 0.500000
vt 0.125000 0.750000
vt 0.875000 0.500000
vt 0.875000 0.750000
vn -1.0000 0.0000 0.0000
vn 0.0000 0.0000 -1.0000
vn 1.0000 0.0000 0.0000
vn 0.0000 0.0000 1.0000
vn 0.0000 -1.0000 0.0000
vn 0.0000 1.0000 -0.0000
usemtl Material.006
s 1
f 271/283/59 272/284/59 273/285/59 274/286/59
f 274/286/60 273/285/60 275/287/60 276/288/60
f 276/288/61 275/287/61 277/289/61 278/290/61
f 278/290/62 277/289/62 272/291/62 271/292/62
f 274/293/63 276/288/63 278/290/63 271/294/63
f 275/287/64 273/295/64 272/296/64 277/289/64
